<?xml version="1.0" standalone="no"?>
<!DOCTYPE svg PUBLIC "-//W3C//DTD SVG 20010904//EN"
 "http://www.w3.org/TR/2001/REC-SVG-20010904/DTD/svg10.dtd">
<svg version="1.0" xmlns="http://www.w3.org/2000/svg"
 width="1595.000000pt" height="1640.000000pt" viewBox="0 0 1595.000000 1640.000000"
 preserveAspectRatio="xMidYMid meet">

<g transform="translate(0.000000,1640.000000) scale(0.100000,-0.100000)"
fill="#FFFFFF" stroke="none">
<path d="M8335 16273 c-106 -6 -337 -34 -445 -54 -211 -40 -496 -125 -876
-260 -383 -136 -516 -200 -828 -397 -82 -52 -203 -125 -268 -162 -281 -161
-599 -257 -1243 -375 -137 -25 -268 -51 -290 -57 -23 -6 -239 -14 -510 -18
-367 -6 -486 -11 -544 -24 -152 -32 -243 -73 -261 -116 -11 -26 -9 -32 15 -64
33 -43 52 -46 261 -50 132 -2 200 -10 399 -44 302 -52 376 -60 676 -72 337
-13 431 -19 609 -36 505 -48 1043 -186 2180 -559 658 -216 1088 -318 1745
-414 334 -49 444 -56 825 -55 290 0 416 5 610 22 322 29 947 73 1220 87 58 3
146 8 195 10 50 3 207 10 350 15 435 17 582 37 935 125 234 58 727 197 873
245 l117 39 255 -36 c140 -21 257 -34 261 -30 4 4 3 12 -4 19 -17 17 -818 265
-1302 403 -696 198 -1004 306 -1301 456 -192 97 -314 175 -632 403 -304 218
-453 309 -712 436 -358 176 -708 304 -1140 416 -512 132 -790 167 -1170 147z
m575 -237 c429 -74 915 -208 1280 -352 458 -182 646 -287 1144 -638 254 -180
361 -245 561 -346 178 -90 299 -141 525 -221 l135 -48 -315 -1 c-173 -1 -331
-3 -350 -5 -19 -2 -116 -6 -215 -9 -224 -8 -451 -21 -805 -46 -151 -11 -309
-22 -350 -25 -41 -3 -93 -7 -115 -10 -221 -25 -747 -23 -979 3 l-59 7 86 53
c146 89 253 213 313 362 62 152 90 419 60 563 -27 131 -74 218 -110 204 -8 -3
-28 -1 -44 5 -32 12 -47 7 -157 -49 -83 -43 -80 -34 -80 -211 l0 -158 -38 -78
c-28 -56 -59 -98 -112 -151 -73 -72 -74 -73 -167 -96 -77 -19 -119 -23 -248
-23 -141 1 -162 3 -235 27 -202 67 -379 207 -453 357 -55 111 -26 233 86 360
41 47 46 59 50 111 4 54 3 59 -19 67 -33 13 -60 3 -129 -47 -194 -142 -299
-404 -245 -616 21 -81 41 -128 91 -206 47 -74 178 -222 251 -281 37 -31 42
-38 22 -34 -13 3 -91 20 -174 37 -154 31 -359 79 -730 169 -192 47 -416 96
-680 149 -351 70 -781 123 -1209 147 l-119 7 129 37 c246 70 433 157 777 364
346 208 421 241 914 405 391 130 646 193 883 220 52 6 109 13 125 15 17 2 161
3 320 1 213 -2 315 -7 385 -19z"/>
<path d="M2797 13573 c-10 -9 -9 -23 1 -23 5 0 9 7 9 15 0 17 -1 18 -10 8z"/>
<path d="M12405 13119 c-62 -26 -74 -36 -102 -83 -18 -29 -46 -101 -63 -161
-18 -59 -36 -115 -40 -124 -5 -9 -23 -52 -40 -96 -45 -115 -179 -369 -272
-515 -102 -159 -242 -363 -271 -394 -12 -13 -62 -77 -112 -141 -297 -388 -758
-880 -1129 -1205 -214 -187 -706 -561 -706 -536 0 7 30 90 40 111 11 24 77
231 115 360 14 50 30 99 35 110 11 23 77 257 111 395 13 52 26 97 29 100 7 6
69 278 116 510 91 446 108 582 108 870 1 324 -17 394 -109 426 -34 11 -45 11
-94 -7 -30 -10 -61 -25 -67 -31 -7 -7 -29 -71 -49 -143 -19 -71 -40 -139 -45
-150 -5 -11 -29 -87 -54 -170 -25 -82 -56 -181 -70 -220 -84 -238 -302 -794
-315 -805 -7 -6 -32 -62 -90 -200 -22 -52 -58 -132 -80 -177 -23 -46 -41 -85
-41 -88 0 -19 -410 -827 -492 -970 -16 -27 -38 -69 -50 -93 -17 -33 -30 -45
-58 -52 -19 -6 -55 -22 -80 -36 -25 -15 -101 -47 -170 -71 -190 -67 -190 -67
-190 -75 0 -5 -6 -8 -12 -8 -7 0 -34 -16 -60 -35 -71 -52 -128 -188 -128 -305
0 -82 99 -328 141 -351 24 -12 24 -33 1 -67 -22 -32 -92 -161 -156 -288 -51
-103 -96 -234 -127 -374 -11 -52 -26 -115 -32 -140 -15 -59 -13 -520 2 -625 6
-44 16 -118 22 -165 11 -92 32 -144 70 -171 22 -16 29 -17 74 -5 103 28 272
109 415 201 167 107 332 303 416 495 15 36 31 67 35 70 4 3 37 77 72 165 l64
160 44 5 44 5 37 -65 c21 -36 63 -114 94 -175 53 -104 202 -338 228 -360 6 -5
25 -28 41 -50 16 -22 61 -78 100 -125 39 -47 98 -122 130 -168 111 -157 157
-196 293 -255 34 -14 92 -47 128 -72 74 -50 97 -54 154 -25 80 41 137 122 160
227 6 26 15 57 20 68 49 107 64 155 65 215 1 42 8 77 20 99 12 23 23 81 33
175 19 188 7 347 -42 541 -36 144 -82 247 -255 569 l-59 110 47 42 c26 23 67
59 91 79 87 71 403 390 558 562 166 185 324 373 450 538 42 55 93 120 114 145
88 103 390 556 521 780 27 47 60 101 72 120 108 164 355 687 415 875 7 22 16
45 20 50 32 42 138 469 162 655 10 82 4 279 -10 307 -14 27 -51 153 -58 196
-4 23 -13 41 -23 44 -9 2 -24 9 -33 14 -27 14 -48 11 -123 -22z"/>
<path d="M7165 12933 c-107 -10 -296 -48 -393 -78 -59 -18 -150 -45 -202 -60
-104 -29 -160 -51 -455 -179 -673 -292 -995 -542 -1334 -1034 -46 -67 -87
-122 -90 -122 -3 0 -14 13 -23 29 -47 83 -206 280 -313 387 -205 205 -366 301
-690 407 -275 90 -323 100 -793 167 -390 55 -561 90 -664 135 -91 41 -429 154
-548 185 -462 118 -1098 75 -1476 -100 -65 -30 -83 -43 -93 -68 -20 -47 -6
-92 50 -168 74 -101 122 -124 345 -169 337 -69 547 -131 794 -237 126 -53 197
-94 307 -175 98 -72 249 -217 278 -267 27 -46 194 -435 230 -536 140 -390 182
-992 105 -1520 -58 -394 -181 -795 -415 -1350 -132 -313 -142 -337 -255 -645
-28 -77 -62 -167 -75 -200 -78 -205 -88 -368 -36 -620 80 -390 111 -473 196
-518 35 -18 61 -21 211 -25 140 -3 182 -1 230 13 166 47 248 137 502 545 127
206 236 430 347 710 20 52 45 115 55 140 26 63 69 188 160 460 144 435 169
526 240 880 82 411 110 636 130 1035 14 280 -11 666 -61 943 -24 133 -90 403
-118 485 -11 31 -17 57 -13 57 17 0 113 -63 175 -114 59 -50 73 -69 121 -164
159 -317 250 -649 317 -1147 20 -145 23 -215 23 -470 1 -359 -19 -579 -93
-1030 -67 -408 -65 -501 20 -765 49 -151 103 -278 229 -535 125 -255 159 -305
209 -305 31 0 219 75 279 112 60 36 150 128 188 189 45 75 85 174 113 279 12
47 30 103 41 125 44 97 98 344 159 725 123 761 145 1494 60 1967 -12 65 -22
128 -23 139 -2 45 392 435 588 583 218 163 435 271 766 381 161 54 400 115
420 108 5 -2 -43 -100 -106 -218 -446 -831 -617 -1177 -780 -1578 -100 -248
-147 -377 -213 -592 -108 -347 -151 -717 -107 -915 27 -122 84 -283 145 -409
129 -263 454 -706 519 -706 16 0 30 17 59 68 20 37 65 105 99 150 72 99 130
212 172 337 84 256 157 491 208 675 115 416 306 843 734 1645 360 674 495 956
555 1155 9 30 39 120 65 200 27 80 54 174 60 210 6 36 20 101 30 145 32 136
44 262 44 460 -1 162 -4 204 -23 282 -33 137 -94 230 -196 299 -49 34 -214 94
-258 94 -12 0 -38 8 -57 19 -62 32 -192 71 -290 84 -90 13 -298 19 -385 10z"/>
<path d="M15180 11794 c-121 -21 -149 -27 -175 -39 -16 -8 -79 -30 -139 -50
-209 -68 -569 -250 -721 -364 -27 -21 -112 -83 -187 -139 -75 -56 -159 -122
-185 -146 -26 -24 -104 -93 -173 -152 -194 -168 -549 -530 -860 -879 -130
-146 -466 -559 -505 -623 -5 -9 -43 -60 -82 -113 -40 -54 -73 -100 -73 -103 0
-3 -21 -36 -48 -73 -129 -183 -244 -414 -287 -579 -10 -38 -22 -74 -26 -79 -5
-6 -18 -65 -31 -130 -17 -92 -22 -157 -23 -275 0 -146 2 -162 34 -275 19 -66
44 -142 56 -170 13 -27 40 -88 60 -135 21 -47 55 -111 77 -142 21 -31 38 -61
38 -65 0 -4 27 -42 60 -83 33 -41 60 -79 60 -83 0 -4 23 -35 50 -68 28 -33 57
-74 66 -92 30 -58 150 -211 211 -267 109 -101 162 -139 278 -198 44 -22 95
-53 113 -70 30 -27 186 -112 205 -112 4 0 26 -9 50 -19 314 -145 1047 -54
1542 189 132 65 284 155 442 261 84 57 254 223 310 304 42 61 105 169 125 215
6 14 23 52 38 85 182 392 299 667 320 756 6 25 10 63 8 84 -3 37 -6 40 -48 52
-61 18 -185 32 -369 43 -175 10 -269 -2 -394 -47 -40 -14 -105 -34 -144 -44
-40 -10 -157 -52 -260 -92 -601 -237 -836 -293 -1193 -285 l-185 4 -61 42
c-70 47 -159 141 -181 191 -18 42 -15 56 53 209 124 279 274 576 395 778 27
45 49 84 49 87 0 4 32 57 72 119 39 62 98 156 131 208 69 108 211 323 259 390
18 25 61 84 95 132 35 48 63 90 63 93 0 3 28 41 63 86 34 44 71 93 82 109 41
60 215 267 350 417 237 263 501 481 684 565 133 61 328 89 375 53 51 -39 77
-4 101 132 22 124 11 165 -64 241 -38 39 -74 64 -107 76 -27 10 -78 29 -114
43 -49 19 -88 26 -160 28 -52 2 -106 2 -120 -1z"/>
<path d="M7111 7076 c-10 -12 -9 -29 5 -83 9 -37 23 -79 30 -93 13 -23 13 -21
8 28 -4 29 -7 76 -8 104 -1 53 -14 69 -35 44z"/>
<path d="M8739 6675 c-18 -10 -29 -26 -33 -51 -4 -20 -12 -48 -18 -63 -22 -51
-92 -429 -103 -551 -4 -47 -11 -107 -17 -135 -14 -69 -19 -115 -19 -147 1 -15
-10 -106 -24 -203 -14 -97 -25 -188 -25 -203 0 -16 -4 -32 -9 -37 -15 -16 -69
-234 -81 -325 -6 -47 -15 -114 -20 -150 -5 -36 -10 -86 -10 -111 0 -25 -9 -72
-20 -104 -26 -75 -35 -185 -33 -410 1 -181 5 -209 49 -344 30 -89 167 -339
227 -411 92 -111 183 -191 269 -235 86 -44 89 -45 148 -36 56 7 65 12 110 59
33 35 68 89 105 164 46 96 57 127 67 204 l11 91 -40 40 c-26 26 -53 43 -78 47
-23 5 -47 18 -61 35 -20 24 -36 30 -97 39 -41 6 -97 9 -125 5 l-51 -6 -37 59
c-91 142 -129 295 -140 574 -3 80 -6 147 -7 150 0 3 2 44 6 92 6 60 3 123 -8
206 -18 142 -14 413 11 610 8 68 14 149 12 180 -3 69 20 361 32 417 5 22 14
101 20 175 6 74 15 153 20 175 17 75 21 180 7 198 -11 14 -15 14 -38 2z"/>
<path d="M6977 6644 c-3 -10 -9 -77 -13 -149 -3 -71 -10 -134 -14 -140 -4 -5
-10 -21 -13 -35 -3 -14 -22 -70 -42 -125 -34 -94 -52 -155 -110 -380 -85 -327
-149 -566 -170 -632 -65 -208 -88 -321 -111 -558 -2 -27 -11 -95 -19 -150 -20
-135 -26 -244 -27 -470 -1 -197 2 -216 52 -365 19 -56 117 -228 187 -329 42
-60 256 -231 289 -231 6 0 37 -12 68 -26 49 -22 64 -25 120 -19 73 8 113 29
148 77 23 31 57 137 63 200 2 14 8 43 15 63 8 23 11 70 8 123 -4 78 -7 87 -32
109 -15 12 -34 23 -42 23 -9 0 -27 9 -41 19 -13 11 -45 23 -70 27 -55 8 -161
71 -237 141 -39 36 -66 73 -88 119 -39 83 -44 104 -75 344 -28 217 -31 261
-34 505 -2 167 2 205 41 425 11 58 22 121 24 140 14 102 19 130 31 185 18 75
29 143 55 315 22 149 55 323 100 516 11 48 2 102 -33 218 -17 54 -26 74 -30
60z"/>
<path d="M2230 5605 c-25 -14 -121 -116 -208 -222 -90 -108 -199 -273 -278
-420 -110 -202 -268 -634 -299 -818 -12 -68 -14 -277 -4 -345 21 -140 26 -159
114 -471 7 -26 20 -60 28 -75 8 -16 25 -60 37 -99 13 -38 31 -81 41 -94 11
-13 19 -30 19 -37 0 -28 104 -211 175 -309 88 -121 346 -385 433 -443 34 -23
65 -42 69 -42 3 0 20 -10 37 -23 86 -65 224 -107 336 -103 91 3 136 18 215 69
71 45 120 111 151 200 11 33 25 62 30 64 6 2 17 -12 26 -30 9 -19 38 -67 64
-108 27 -41 59 -98 71 -128 13 -29 27 -59 32 -65 6 -7 30 -59 54 -116 25 -58
68 -145 96 -195 29 -49 70 -126 92 -170 22 -44 54 -105 71 -135 18 -30 50 -91
73 -135 23 -44 56 -105 72 -135 17 -30 51 -91 75 -135 85 -153 101 -180 114
-196 8 -8 14 -18 14 -22 0 -3 14 -26 30 -50 17 -25 30 -47 30 -50 0 -13 67
-106 118 -165 53 -61 103 -98 116 -85 15 16 -1 149 -25 195 -5 10 -9 24 -9 31
0 17 -67 176 -184 435 -53 116 -96 217 -96 222 0 10 -15 48 -118 295 -27 66
-59 149 -70 185 -11 36 -36 108 -56 159 -20 52 -34 96 -32 99 3 2 -4 26 -15
53 -10 27 -21 75 -24 107 -6 78 -20 163 -39 247 -9 39 -25 124 -36 190 -19
118 -81 357 -99 379 -32 39 -173 706 -170 801 1 33 -3 101 -11 152 -14 103
-29 126 -83 126 -20 0 -48 11 -73 29 -40 29 -41 29 -85 14 -24 -9 -50 -16 -57
-16 -7 0 -68 -25 -135 -55 -101 -46 -126 -62 -146 -92 -31 -49 -37 -127 -17
-228 23 -116 17 -398 -12 -570 -12 -71 -27 -164 -33 -205 -26 -172 -66 -274
-114 -286 -13 -3 -51 -4 -84 -1 -135 10 -280 158 -404 412 -91 185 -107 220
-107 236 0 8 -6 23 -14 34 -7 11 -17 36 -21 55 -4 19 -13 46 -20 60 -32 60
-65 188 -100 385 -30 165 -17 303 56 597 95 385 158 540 330 813 86 138 118
199 119 228 0 21 -25 22 -60 2z"/>
<path d="M10690 5089 c-79 -8 -155 -31 -230 -70 -51 -26 -206 -183 -250 -253
-48 -75 -134 -295 -159 -404 -18 -81 46 -361 120 -527 106 -237 141 -297 234
-399 73 -80 145 -128 240 -159 117 -38 354 39 475 153 27 25 79 73 118 107 73
65 162 197 162 240 0 12 4 33 10 47 7 20 6 26 -5 26 -7 0 -17 -5 -20 -11 -4
-6 -14 -8 -22 -5 -8 4 -59 -19 -113 -49 -172 -97 -236 -110 -321 -66 -31 15
-65 36 -75 45 -10 10 -43 35 -71 55 -55 40 -197 218 -245 306 -32 62 -95 277
-118 408 -17 94 -16 105 14 199 36 115 53 137 130 180 86 48 160 65 209 49 74
-25 174 -179 183 -282 6 -64 6 -64 -44 -139 -44 -66 -124 -140 -151 -140 -5 0
-32 -16 -60 -35 -28 -19 -57 -35 -64 -35 -19 0 -57 -43 -57 -64 0 -9 10 -30
22 -46 18 -25 29 -30 63 -30 26 0 53 8 75 23 19 13 50 27 68 30 18 4 58 19 90
34 31 15 63 26 69 25 7 -2 26 4 43 13 33 17 160 133 160 146 0 4 20 41 44 81
65 106 81 197 56 303 -16 68 -55 106 -170 164 -146 74 -260 96 -410 80z"/>
<path d="M12436 4871 c-22 -24 -36 -111 -41 -251 -4 -117 -11 -215 -40 -555
-9 -104 -14 -207 -12 -229 8 -57 -20 -583 -34 -646 -7 -30 -13 -94 -13 -142
-1 -86 -1 -87 40 -145 22 -32 53 -64 69 -72 24 -12 30 -11 54 6 60 44 148 265
226 568 47 182 136 486 191 650 23 72 48 159 54 195 6 36 22 115 35 176 14 61
25 122 25 135 0 49 13 53 71 21 101 -57 215 -91 341 -104 109 -11 119 -10 138
7 41 37 28 50 -94 90 -112 35 -190 76 -347 181 -57 39 -72 44 -120 44 -68 0
-101 -21 -146 -91 -18 -29 -33 -57 -33 -61 0 -5 -27 -66 -61 -135 -34 -70 -76
-159 -94 -200 -19 -40 -38 -73 -44 -73 -5 0 -12 28 -15 63 -13 154 -27 247
-47 312 -12 39 -27 110 -34 158 -17 112 -34 137 -69 98z"/>
<path d="M5328 4838 c-13 -18 -32 -60 -42 -93 -10 -33 -36 -96 -57 -141 -38
-81 -70 -219 -84 -364 -6 -73 -29 -202 -52 -300 -8 -36 -19 -86 -23 -112 -15
-81 -59 -158 -128 -223 -87 -81 -113 -86 -209 -38 -41 20 -83 49 -96 67 -14
17 -52 58 -86 91 -35 33 -72 78 -83 100 -11 22 -26 47 -33 55 -19 23 -45 114
-45 157 0 56 35 182 81 297 75 189 139 277 241 335 69 40 113 46 190 27 54
-14 71 -24 117 -72 51 -52 56 -55 68 -38 19 26 16 42 -19 97 -75 118 -202 159
-353 114 -53 -15 -66 -22 -162 -90 -45 -32 -85 -67 -88 -77 -3 -11 -25 -43
-49 -72 -107 -134 -176 -270 -216 -428 -18 -71 -21 -103 -17 -190 6 -122 49
-353 78 -416 10 -24 28 -65 40 -91 24 -55 102 -178 133 -210 12 -11 45 -52 75
-90 90 -112 274 -255 348 -269 46 -9 168 3 196 19 12 6 52 41 88 77 85 85 120
160 159 338 17 75 34 151 39 167 l8 30 7 -30 c8 -30 14 -48 34 -95 43 -100 92
-221 92 -225 0 -3 11 -28 25 -57 14 -28 25 -59 25 -68 0 -9 15 -34 34 -56 29
-34 35 -37 50 -25 24 20 19 52 -24 146 -11 24 -63 320 -62 355 2 39 -37 280
-52 330 -8 25 -22 104 -31 175 -21 165 -31 230 -44 280 -6 23 -8 86 -4 150 6
132 8 234 4 377 -2 84 -5 108 -17 112 -26 10 -31 7 -56 -26z"/>
<path d="M14120 4385 c-18 -21 -20 -61 -9 -180 14 -158 19 -195 34 -275 8 -42
22 -138 30 -214 9 -76 19 -144 22 -150 4 -6 11 -83 14 -171 10 -225 27 -471
42 -611 10 -96 11 -126 1 -151 -7 -16 -56 -98 -108 -182 -53 -84 -124 -205
-158 -269 -33 -64 -76 -143 -95 -175 -18 -32 -33 -61 -33 -64 0 -3 -17 -31
-38 -62 -60 -88 -60 -87 -399 -751 -299 -584 -443 -888 -443 -934 0 -9 5 -16
10 -16 21 0 58 48 127 165 117 200 180 305 246 407 34 54 113 180 176 280 140
224 288 445 373 558 35 47 97 130 138 185 41 55 85 114 97 130 31 41 357 526
366 545 4 8 25 42 47 75 21 33 59 94 83 135 25 41 65 103 89 137 213 307 308
461 342 558 10 28 42 100 71 160 29 61 58 128 65 150 7 22 27 72 46 111 18 39
36 89 40 111 5 36 4 42 -15 48 -11 3 -29 1 -40 -4 -27 -15 -117 -118 -135
-155 -23 -49 -71 -111 -150 -194 -62 -65 -160 -188 -216 -268 -41 -59 -163
-214 -169 -214 -3 0 -19 74 -34 164 -32 186 -45 236 -140 516 -14 41 -37 111
-51 155 -52 165 -86 241 -117 263 -11 7 -19 21 -19 30 0 9 -10 49 -22 87 -27
86 -42 101 -68 70z"/>
</g>
</svg>
