<?xml version="1.0" standalone="no"?>
<!DOCTYPE svg PUBLIC "-//W3C//DTD SVG 20010904//EN"
 "http://www.w3.org/TR/2001/REC-SVG-20010904/DTD/svg10.dtd">
<svg version="1.0" xmlns="http://www.w3.org/2000/svg"
 width="1542.000000pt" height="1053.000000pt" viewBox="0 0 1542.000000 1053.000000"
 preserveAspectRatio="xMidYMid meet">

<g transform="translate(0.000000,1053.000000) scale(0.100000,-0.100000)"
fill="#FFFFFF" stroke="none">
<path d="M8345 10313 c-106 -6 -337 -34 -445 -54 -211 -40 -496 -125 -876
-260 -383 -136 -516 -200 -828 -397 -82 -52 -203 -125 -268 -162 -281 -161
-599 -257 -1243 -375 -137 -25 -268 -51 -290 -57 -23 -6 -239 -14 -510 -18
-367 -6 -486 -11 -544 -24 -152 -32 -243 -73 -261 -116 -11 -26 -9 -32 15 -64
33 -43 52 -46 261 -50 132 -2 200 -10 399 -44 302 -52 376 -60 676 -72 337
-13 431 -19 609 -36 505 -48 1043 -186 2180 -559 658 -216 1088 -318 1745
-414 334 -49 444 -56 825 -55 290 0 416 5 610 22 322 29 947 73 1220 87 58 3
146 8 195 10 50 3 207 10 350 15 435 17 582 37 935 125 234 58 727 197 873
245 l117 39 255 -36 c140 -21 257 -34 261 -30 4 4 3 12 -4 19 -17 17 -818 265
-1302 403 -696 198 -1004 306 -1301 456 -192 97 -314 175 -632 403 -304 218
-453 309 -712 436 -358 176 -708 304 -1140 416 -512 132 -790 167 -1170 147z
m575 -237 c429 -74 915 -208 1280 -352 458 -182 646 -287 1144 -638 254 -180
361 -245 561 -346 178 -90 299 -141 525 -221 l135 -48 -315 -1 c-173 -1 -331
-3 -350 -5 -19 -2 -116 -6 -215 -9 -224 -8 -451 -21 -805 -46 -151 -11 -309
-22 -350 -25 -41 -3 -93 -7 -115 -10 -221 -25 -747 -23 -979 3 l-59 7 86 53
c146 89 253 213 313 362 62 152 90 419 60 563 -27 131 -74 218 -110 204 -8 -3
-28 -1 -44 5 -32 12 -47 7 -157 -49 -83 -43 -80 -34 -80 -211 l0 -158 -38 -78
c-28 -56 -59 -98 -112 -151 -73 -72 -74 -73 -167 -96 -77 -19 -119 -23 -248
-23 -141 1 -162 3 -235 27 -202 67 -379 207 -453 357 -55 111 -26 233 86 360
41 47 46 59 50 111 4 54 3 59 -19 67 -33 13 -60 3 -129 -47 -194 -142 -299
-404 -245 -616 21 -81 41 -128 91 -206 47 -74 178 -222 251 -281 37 -31 42
-38 22 -34 -13 3 -91 20 -174 37 -154 31 -359 79 -730 169 -192 47 -416 96
-680 149 -351 70 -781 123 -1209 147 l-119 7 129 37 c246 70 433 157 777 364
346 208 421 241 914 405 391 130 646 193 883 220 52 6 109 13 125 15 17 2 161
3 320 1 213 -2 315 -7 385 -19z"/>
<path d="M2807 7613 c-10 -9 -9 -23 1 -23 5 0 9 7 9 15 0 17 -1 18 -10 8z"/>
<path d="M12000 7102 c-60 -25 -67 -32 -101 -92 -21 -36 -51 -114 -69 -175
-41 -145 -68 -210 -161 -398 -335 -672 -1094 -1579 -1828 -2182 -94 -77 -384
-295 -388 -292 -1 2 18 65 43 142 209 650 351 1224 428 1730 49 318 60 594 30
757 -18 101 -37 130 -92 146 -42 13 -51 11 -118 -18 l-40 -18 -62 -219 c-203
-719 -481 -1402 -945 -2325 -194 -386 -201 -398 -234 -407 -19 -5 -55 -23 -81
-40 -26 -16 -92 -45 -147 -64 -130 -46 -200 -78 -252 -116 -55 -40 -100 -133
-115 -239 -11 -75 -10 -83 16 -163 15 -46 31 -88 36 -94 4 -5 11 -21 15 -35 4
-14 23 -46 41 -73 19 -26 34 -51 34 -55 0 -5 -30 -64 -67 -133 -127 -235 -188
-403 -230 -629 -36 -194 -12 -828 36 -919 9 -19 28 -43 42 -53 24 -18 26 -18
89 3 97 32 311 143 398 208 97 73 190 172 257 275 69 107 84 137 180 366 l82
195 40 5 40 6 93 -181 c91 -176 207 -361 299 -479 25 -32 66 -83 91 -115 25
-31 78 -102 118 -157 86 -122 133 -165 232 -212 41 -19 103 -55 137 -79 72
-50 97 -53 163 -17 76 41 113 103 150 248 11 43 32 104 46 134 21 44 25 64 20
99 -4 34 -1 54 16 86 29 58 51 267 43 407 -8 120 -44 296 -87 420 -16 47 -81
184 -142 305 l-113 220 145 135 c582 541 1214 1366 1622 2119 416 766 605
1491 480 1835 -10 28 -21 70 -25 94 -4 27 -13 45 -23 48 -10 3 -25 10 -34 15
-26 13 -36 11 -108 -19z"/>
<path d="M7175 6973 c-107 -10 -296 -48 -393 -78 -59 -18 -150 -45 -202 -60
-104 -29 -160 -51 -455 -179 -673 -292 -995 -542 -1334 -1034 -46 -67 -87
-122 -90 -122 -3 0 -14 13 -23 29 -47 83 -206 280 -313 387 -205 205 -366 301
-690 407 -275 90 -323 100 -793 167 -390 55 -561 90 -664 135 -91 41 -429 154
-548 185 -462 118 -1098 75 -1476 -100 -65 -30 -83 -43 -93 -68 -20 -47 -6
-92 50 -168 74 -101 122 -124 345 -169 337 -69 547 -131 794 -237 126 -53 197
-94 307 -175 98 -72 249 -217 278 -267 27 -46 194 -435 230 -536 140 -390 182
-992 105 -1520 -58 -394 -181 -795 -415 -1350 -132 -313 -142 -337 -255 -645
-28 -77 -62 -167 -75 -200 -78 -205 -88 -368 -36 -620 80 -390 111 -473 196
-518 35 -18 61 -21 211 -25 140 -3 182 -1 230 13 166 47 248 137 502 545 127
206 236 430 347 710 20 52 45 115 55 140 26 63 69 188 160 460 144 435 169
526 240 880 82 411 110 636 130 1035 14 280 -11 666 -61 943 -24 133 -90 403
-118 485 -11 31 -17 57 -13 57 17 0 113 -63 175 -114 59 -50 73 -69 121 -164
159 -317 250 -649 317 -1147 20 -145 23 -215 23 -470 1 -359 -19 -579 -93
-1030 -67 -408 -65 -501 20 -765 49 -151 103 -278 229 -535 125 -255 159 -305
209 -305 31 0 219 75 279 112 60 36 150 128 188 189 45 75 85 174 113 279 12
47 30 103 41 125 44 97 98 344 159 725 123 761 145 1494 60 1967 -12 65 -22
128 -23 139 -2 45 392 435 588 583 218 163 435 271 766 381 161 54 400 115
420 108 5 -2 -43 -100 -106 -218 -446 -831 -617 -1177 -780 -1578 -100 -248
-147 -377 -213 -592 -108 -347 -151 -717 -107 -915 27 -122 84 -283 145 -409
129 -263 454 -706 519 -706 16 0 30 17 59 67 20 38 65 106 99 151 72 99 130
212 172 337 84 256 157 491 208 675 115 416 306 843 734 1645 360 674 495 956
555 1155 9 30 39 120 65 200 27 80 54 174 60 210 6 36 20 101 30 145 32 136
44 262 44 460 -1 162 -4 204 -23 282 -33 137 -94 230 -196 299 -49 34 -214 94
-258 94 -12 0 -38 8 -57 19 -62 32 -192 71 -290 84 -90 13 -298 19 -385 10z"/>
<path d="M14462 6299 c-157 -24 -467 -139 -712 -264 -357 -183 -870 -592
-1309 -1044 -726 -748 -1153 -1309 -1276 -1676 -67 -199 -100 -468 -76 -610
47 -270 172 -513 420 -815 21 -25 62 -81 92 -124 115 -169 263 -299 446 -390
40 -20 103 -55 140 -80 319 -205 770 -230 1369 -76 305 79 589 207 894 405
280 181 373 293 575 696 211 418 295 630 277 694 -13 45 -65 54 -352 61 -271
7 -371 -3 -511 -51 -41 -14 -110 -34 -153 -46 -43 -11 -156 -50 -250 -86 -274
-105 -600 -212 -741 -243 -195 -43 -302 -53 -507 -48 l-183 4 -59 38 c-70 45
-149 124 -176 175 l-19 37 53 120 c215 486 572 1065 1047 1699 469 627 898
1024 1226 1138 110 37 248 49 284 23 40 -27 58 -20 82 32 16 36 21 67 22 133
0 78 -3 89 -28 126 -42 60 -108 102 -221 140 -113 38 -241 50 -354 32z"/>
</g>
</svg>
